<?xml version="1.0" standalone="no"?>
<!DOCTYPE svg PUBLIC "-//W3C//DTD SVG 20010904//EN"
 "http://www.w3.org/TR/2001/REC-SVG-20010904/DTD/svg10.dtd">
<svg version="1.0" xmlns="http://www.w3.org/2000/svg"
 width="880.000000pt" height="1060.000000pt" viewBox="0 0 880.000000 1060.000000"
 preserveAspectRatio="xMidYMid meet">

<g transform="translate(0.000000,1060.000000) scale(0.100000,-0.100000)"
fill="#000000" stroke="none">
<path d="M1105 10193 c-334 -46 -614 -309 -679 -638 -15 -73 -16 -435 -14
-3950 l3 -3870 31 -70 c69 -155 108 -218 189 -304 97 -104 241 -188 390 -227
68 -18 180 -19 3380 -19 l3310 0 79 23 c139 40 246 102 349 200 116 113 198
262 231 424 14 70 16 453 16 3885 0 2619 -3 3828 -11 3873 -28 174 -100 312
-228 441 -129 128 -267 200 -441 228 -62 10 -6532 14 -6605 4z m6590 -618 c36
-22 57 -45 77 -84 l28 -53 0 -3783 0 -3783 -28 -53 c-20 -39 -41 -62 -77 -84
l-48 -30 -3247 0 -3247 0 -48 30 c-36 22 -57 45 -77 84 l-28 53 0 3778 c0
2797 3 3786 11 3811 19 55 55 95 111 123 l52 26 3236 -2 3237 -3 48 -30z"/>
<path d="M1741 8839 c-130 -26 -224 -142 -225 -279 -1 -112 58 -206 162 -257
l57 -28 2036 0 2035 0 59 30 c214 109 206 409 -14 517 l-46 23 -2010 1 c-1105
1 -2030 -2 -2054 -7z"/>
<path d="M1777 7806 c-127 -46 -199 -147 -201 -281 -1 -126 71 -230 191 -275
54 -20 70 -20 1576 -18 l1522 3 42 23 c66 35 110 79 140 140 70 142 12 315
-131 390 l-51 27 -1525 2 c-1265 2 -1531 0 -1563 -11z"/>
<path d="M1860 6660 c-135 -5 -148 -7 -191 -32 -176 -104 -206 -335 -60 -471
94 -88 -2 -82 1261 -82 l1115 0 45 23 c69 34 112 74 145 133 27 48 30 63 30
139 0 64 -5 94 -19 120 -38 70 -77 109 -143 141 l-65 33 -986 0 c-543 1 -1052
-1 -1132 -4z"/>
<path d="M6769 6471 c-14 -4 -36 -14 -50 -21 -34 -18 -248 -229 -265 -262 -18
-35 -18 -82 0 -116 8 -15 133 -145 278 -288 280 -279 292 -288 361 -265 50 17
191 165 224 237 24 51 28 72 28 149 0 144 -10 161 -204 358 -91 93 -183 178
-205 189 -43 22 -128 32 -167 19z"/>
<path d="M6135 5852 c-25 -3 -224 -198 -1133 -1106 l-1103 -1102 -70 -224
c-38 -124 -92 -297 -119 -384 -28 -88 -50 -172 -50 -186 0 -42 40 -93 85 -108
39 -13 49 -11 423 107 210 66 390 125 400 130 9 5 509 502 1110 1103 973 974
1093 1098 1098 1130 4 20 3 50 -1 65 -4 18 -93 115 -253 276 -136 137 -259
258 -275 269 -33 24 -72 35 -112 30z"/>
<path d="M1745 5520 c-59 -15 -86 -30 -134 -75 -155 -145 -115 -392 78 -479
l60 -27 723 3 723 3 42 23 c54 28 107 81 135 135 19 34 23 58 23 127 0 73 -4
92 -27 136 -31 59 -84 108 -147 138 -45 21 -57 21 -746 23 -385 1 -713 -2
-730 -7z"/>
</g>
</svg>
